<?xml version="1.0" encoding="utf-8"?>
<!-- Generator: Adobe Illustrator 22.1.0, SVG Export Plug-In . SVG Version: 6.00 Build 0)  -->
<svg version="1.1" id="Layer_1" xmlns="http://www.w3.org/2000/svg" xmlns:xlink="http://www.w3.org/1999/xlink" x="0px" y="0px"
	 viewBox="0 0 437.3 326.9" style="enable-background:new 0 0 437.3 326.9;" xml:space="preserve">
<style type="text/css">
	.st0{fill:#FFFFFF;}
	.st1{fill:#1F3C92;}
	.st2{fill:#EF3B2D;}
</style>
<g>
	<g>
		<path class="st0" d="M387.4,152.4l-27.9-35.8L385.1,86l14-16.6h-58.8l-3,3.9l-7.8,10.1l-7.8-10.1l-0.1-0.1l-2.9-3.8H277h-17.1
			h-24.5c-4.7-1.8-9.8-2.7-15.3-2.7c-13.2,0-25.6,5.1-34.8,14.3c-3.6,3.6-6.6,7.8-9,12.4c-1.6-5.7-4.4-10.4-9.3-15.6
			c-9.2-9.7-21.5-11.1-28-11.1c-9.3,0-17.7,3-24.5,8.6c-6.4-5.7-14.1-8.6-23.1-8.6c-6,0-11,1.2-14.8,2.7H37.2v99.2h43.7v-0.2h4.9
			v0.2h43.7v-0.2h4.9v0.2h43.7v-20.4c1.5,2.5,3.2,4.8,5.1,7c9.2,10.5,21.9,16.1,36.8,16.1c5.3,0,10.6-1,15.3-2.7h23.4H277h39l3-3.9
			l10.5-13.7l10.3,13.4l0.1,0.1l3.1,4.1h57.1L387.4,152.4z"/>
		<g>
			<g>
				<path class="st1" d="M46,79.1h22v8.4c0,0,1.4-2.9,4.8-5.6c3.4-2.9,8.9-5.6,17.2-5.6c5.4,0,12.2,1.4,18,7.6
					c1.7,1.7,3.3,3.8,4.7,6.6c1.6-2.4,3.4-4.8,5.7-6.8c4.7-4.3,11.1-7.3,19.3-7.3c5.5,0,14.3,1.3,20.7,8c7.4,7.8,8.5,13.1,8.5,30.7
					v43.2h-23.6v-42.1c0-3.3,0-7.6-1.6-11.1c-1.4-3.7-4.4-6.4-10.5-6.4c-6.5,0-9.8,3-11.4,6.6c-1.7,3.6-1.7,7.6-1.7,9.8v43.2H94.8
					v-43.1c0-2.1,0-6.3-1.4-9.8c-1.6-3.7-4.4-6.7-10.4-6.7c-6.7,0-9.9,3.1-11.6,7c-1.7,3.8-1.7,8.1-1.7,10.6v42.1H46V79.1z"/>
				<path class="st1" d="M265.9,158.3h-23.6v-8.6C238,157.4,228.2,161,219,161c-25,0-39.6-19.7-39.6-42.4
					c0-25.9,18.6-42.2,39.6-42.2c12.9,0,20.2,6.3,23.3,11.1v-8.4h23.6V158.3z M202.9,119c0,7.3,5.4,19.8,19.6,19.8
					c8.4,0,13.5-4,16.5-8.8c2-3.1,3-6.6,3.3-10.1c0.3-3.6-0.4-7.1-2-10.4c-2.6-5.4-8-11-17.9-11c-13.5,0-19.5,11.4-19.5,20.4V119z"
					/>
				<polygon class="st2" points="345.5,115.9 376.4,79.1 344.3,79.1 328.5,99.5 312.8,79.3 312.7,79.1 280.5,79.1 311.5,115.9 
					278.5,158.3 310,158.3 328.5,134.2 346.9,158.1 347,158.3 378.5,158.3 				"/>
			</g>
		</g>
	</g>
	<g>
		<g>
			<path class="st0" d="M54.5,205.6c-0.7-0.8-1.6-1.5-2.7-1.9c-1.1-0.4-2.2-0.6-3.2-0.6c-0.6,0-1.2,0.1-1.8,0.2
				c-0.6,0.1-1.2,0.4-1.8,0.7c-0.6,0.3-1,0.7-1.4,1.2c-0.4,0.5-0.5,1.1-0.5,1.8c0,1.1,0.4,2,1.3,2.6c0.8,0.6,1.9,1.1,3.2,1.5
				c1.3,0.4,2.7,0.8,4.1,1.3c1.5,0.4,2.9,1,4.1,1.8c1.3,0.8,2.3,1.8,3.2,3.1c0.8,1.3,1.3,3,1.3,5.2c0,2.1-0.4,3.9-1.2,5.4
				c-0.8,1.5-1.8,2.8-3.1,3.8c-1.3,1-2.8,1.8-4.6,2.3c-1.7,0.5-3.6,0.7-5.5,0.7c-2.4,0-4.7-0.4-6.7-1.1c-2.1-0.7-4-1.9-5.8-3.6
				l5.9-6.4c0.8,1.1,1.9,2,3.2,2.6c1.3,0.6,2.6,0.9,4,0.9c0.7,0,1.3-0.1,2-0.2c0.7-0.2,1.3-0.4,1.8-0.7c0.5-0.3,1-0.7,1.3-1.2
				c0.3-0.5,0.5-1.1,0.5-1.7c0-1.1-0.4-2-1.3-2.7c-0.9-0.6-1.9-1.2-3.2-1.7c-1.3-0.5-2.7-0.9-4.2-1.4c-1.5-0.5-2.9-1.1-4.2-1.8
				c-1.3-0.8-2.4-1.8-3.2-3.1c-0.9-1.3-1.3-2.9-1.3-5c0-2,0.4-3.8,1.2-5.3c0.8-1.5,1.8-2.8,3.2-3.8c1.3-1,2.8-1.8,4.6-2.3
				c1.7-0.5,3.5-0.8,5.3-0.8c2.1,0,4.1,0.3,6.1,0.9c2,0.6,3.7,1.6,5.3,3L54.5,205.6z"/>
			<path class="st0" d="M67.7,196.5h12.4l8.6,24.4h0.1l8.6-24.4h12.4v37.3h-8.2v-28.6h-0.1l-9.8,28.6h-6.3L76,205.2h-0.1v28.6h-8.2
				V196.5z"/>
			<path class="st0" d="M131,196.5h6.8l16.2,37.3h-9.3l-3.2-7.9h-14.5l-3.1,7.9h-9.1L131,196.5z M134.2,207.3l-4.5,11.6h9.1
				L134.2,207.3z"/>
			<path class="st0" d="M159.1,196.5h14.4c1.9,0,3.7,0.2,5.4,0.6c1.7,0.4,3.2,1,4.5,1.8c1.3,0.9,2.3,2,3.1,3.5
				c0.8,1.5,1.1,3.3,1.1,5.5c0,2.6-0.7,4.9-2.1,6.7c-1.4,1.8-3.4,3-6,3.5l9.5,15.8h-9.9l-7.8-14.9h-4.1v14.9h-8.2V196.5z
				 M167.4,211.9h4.9c0.7,0,1.5,0,2.3-0.1c0.8-0.1,1.6-0.2,2.2-0.5c0.7-0.3,1.2-0.7,1.7-1.2c0.4-0.6,0.7-1.4,0.7-2.4
				c0-0.9-0.2-1.7-0.6-2.3c-0.4-0.6-0.9-1-1.5-1.3c-0.6-0.3-1.3-0.5-2.1-0.6c-0.8-0.1-1.5-0.2-2.3-0.2h-5.4V211.9z"/>
			<path class="st0" d="M200.9,203.7h-10.6v-7.3h29.5v7.3h-10.6v30h-8.2V203.7z"/>
			<path class="st0" d="M243,196.5h4.4v16.1h0.6l17-16.1h6.4l-18.5,17l19.3,20.3h-6.5l-17.8-19h-0.6v19H243V196.5z"/>
			<path class="st0" d="M278.9,196.5h4.4v37.3h-4.4V196.5z"/>
			<path class="st0" d="M312.5,234.7c-2.8,0-5.5-0.5-7.8-1.5c-2.4-1-4.4-2.3-6.2-4.1c-1.7-1.7-3.1-3.8-4.1-6.2c-1-2.4-1.5-5-1.5-7.8
				c0-2.8,0.5-5.4,1.5-7.8c1-2.4,2.3-4.5,4.1-6.2c1.7-1.7,3.8-3.1,6.2-4.1c2.4-1,5-1.5,7.8-1.5c2.8,0,5.5,0.5,7.8,1.5
				c2.4,1,4.4,2.3,6.2,4.1c1.7,1.7,3.1,3.8,4.1,6.2c1,2.4,1.5,5,1.5,7.8c0,2.8-0.5,5.4-1.5,7.8c-1,2.4-2.3,4.5-4.1,6.2
				c-1.7,1.7-3.8,3.1-6.2,4.1C318,234.2,315.4,234.7,312.5,234.7z M312.5,230.6c2.2,0,4.2-0.4,6-1.2c1.8-0.8,3.4-1.9,4.7-3.3
				c1.3-1.4,2.3-3,3-4.9c0.7-1.9,1.1-3.9,1.1-6c0-2.1-0.4-4.2-1.1-6c-0.7-1.9-1.7-3.5-3-4.9c-1.3-1.4-2.9-2.5-4.7-3.3
				c-1.8-0.8-3.8-1.2-6-1.2c-2.2,0-4.2,0.4-6,1.2c-1.8,0.8-3.4,1.9-4.7,3.3c-1.3,1.4-2.3,3-3,4.9s-1.1,3.9-1.1,6
				c0,2.1,0.4,4.2,1.1,6c0.7,1.9,1.7,3.5,3,4.9c1.3,1.4,2.9,2.5,4.7,3.3C308.4,230.2,310.4,230.6,312.5,230.6z"/>
			<path class="st0" d="M359.5,203c-0.7-1.2-1.7-2.1-3-2.6c-1.2-0.5-2.5-0.8-3.8-0.8c-1,0-2,0.1-2.9,0.4c-0.9,0.2-1.8,0.6-2.6,1.1
				c-0.8,0.5-1.4,1.1-1.8,2c-0.5,0.8-0.7,1.8-0.7,2.8c0,0.8,0.1,1.6,0.4,2.2c0.3,0.7,0.7,1.2,1.3,1.8c0.6,0.5,1.4,1,2.4,1.5
				c1,0.5,2.3,0.9,3.7,1.4c1.4,0.5,2.8,0.9,4.2,1.5c1.4,0.5,2.5,1.2,3.6,2c1,0.8,1.9,1.8,2.5,3c0.6,1.2,0.9,2.7,0.9,4.6
				c0,1.9-0.4,3.5-1.1,4.9c-0.7,1.4-1.7,2.5-2.9,3.4c-1.2,0.9-2.6,1.6-4.2,2c-1.6,0.4-3.2,0.7-4.9,0.7c-1.1,0-2.2-0.1-3.3-0.3
				c-1.1-0.2-2.1-0.5-3.1-0.9c-1-0.4-1.9-0.9-2.8-1.6c-0.9-0.7-1.6-1.5-2.3-2.4l3.8-3.1c0.8,1.4,1.9,2.4,3.4,3.1
				c1.4,0.7,3,1.1,4.6,1.1c0.9,0,1.9-0.1,2.9-0.4c1-0.3,1.8-0.7,2.6-1.2c0.8-0.5,1.4-1.2,1.9-2c0.5-0.8,0.7-1.7,0.7-2.8
				c0-1.2-0.2-2.1-0.6-2.8c-0.4-0.7-1-1.3-1.8-1.9c-0.8-0.5-1.8-1-3.1-1.4c-1.2-0.4-2.7-0.9-4.3-1.5c-1.3-0.4-2.6-0.9-3.7-1.4
				c-1.1-0.5-2.1-1.2-2.9-2c-0.8-0.8-1.5-1.7-2-2.8c-0.5-1.1-0.7-2.4-0.7-4c0-1.8,0.4-3.4,1.1-4.7c0.7-1.3,1.7-2.5,2.8-3.3
				c1.2-0.9,2.5-1.6,4.1-2c1.5-0.5,3.1-0.7,4.7-0.7c2.1,0,4,0.3,5.8,1c1.7,0.7,3.3,1.8,4.7,3.4L359.5,203z"/>
			<path class="st0" d="M373.8,196.5h4.4v16.1h0.6l17-16.1h6.4l-18.5,17l19.3,20.3h-6.5l-17.8-19h-0.6v19h-4.4V196.5z"/>
		</g>
	</g>
	<rect x="37.3" y="258" class="st0" width="362.7" height="2.2"/>
</g>
</svg>
